<?xml version="1.0" encoding="UTF-8" standalone="no"?>
<svg
   xmlns:dc="http://purl.org/dc/elements/1.1/"
   xmlns:cc="http://creativecommons.org/ns#"
   xmlns:rdf="http://www.w3.org/1999/02/22-rdf-syntax-ns#"
   xmlns:svg="http://www.w3.org/2000/svg"
   xmlns="http://www.w3.org/2000/svg"
   xmlns:sodipodi="http://sodipodi.sourceforge.net/DTD/sodipodi-0.dtd"
   xmlns:inkscape="http://www.inkscape.org/namespaces/inkscape"
   width="700"
   height="616.37494"
   version="1.1"
   id="svg3397"
   sodipodi:docname="1.10 Mongolian road sign.svg"
   inkscape:version="0.92.2 (5c3e80d, 2017-08-06)">
  <metadata
     id="metadata3403">
    <rdf:RDF>
      <cc:Work
         rdf:about="">
        <dc:format>image/svg+xml</dc:format>
        <dc:type
           rdf:resource="http://purl.org/dc/dcmitype/StillImage" />
        <dc:title></dc:title>
      </cc:Work>
    </rdf:RDF>
  </metadata>
  <defs
     id="defs3401" />
  <sodipodi:namedview
     pagecolor="#ffffff"
     bordercolor="#666666"
     borderopacity="1"
     objecttolerance="10"
     gridtolerance="10"
     guidetolerance="10"
     inkscape:pageopacity="0"
     inkscape:pageshadow="2"
     inkscape:window-width="1280"
     inkscape:window-height="658"
     id="namedview3399"
     showgrid="false"
     inkscape:zoom="0.45444439"
     inkscape:cx="417.21919"
     inkscape:cy="158.25301"
     inkscape:window-x="-8"
     inkscape:window-y="-8"
     inkscape:window-maximized="1"
     inkscape:current-layer="svg3397" />
  <path
     style="fill:#ffffff;stroke-width:0.99999994"
     d="m 0.16117459,578.46665 c 0,20.84732 16.89981441,37.74715 37.74714041,37.74715 H 662.09168 c 20.84732,0 37.74713,-16.89983 37.74713,-37.74715 0,-6.62588 -1.74391,-13.13517 -5.05728,-18.87357 L 382.68986,19.03476 C 375.94737,7.3557799 363.48579,0.16117994 349.99999,0.16117994 c -13.48579,0 -25.94738,7.19459996 -32.68986,18.87358006 L 5.2184526,559.59308 c -3.31336,5.7384 -5.05727801,12.24769 -5.05727801,18.87357 z"
     id="path3379"
     inkscape:connector-curvature="0" />
  <path
     style="fill:none;stroke:#000000;stroke-width:1.99999988px"
     d="m 0.99999994,578.46665 c 0,20.3843 16.52402106,36.90831 36.90831506,36.90831 H 662.09168 c 20.38428,0 36.90831,-16.52401 36.90831,-36.90831 0,-6.47908 -1.70533,-12.84326 -4.94488,-18.45416 L 381.96344,19.45416 C 375.37026,8.0343899 363.18633,0.99999994 349.99999,0.99999994 c -13.18633,0 -25.37027,7.03438996 -31.96344,18.45416006 L 5.9448753,560.01249 c -3.2395434,5.6109 -4.94487536,11.97508 -4.94487536,18.45416 z"
     id="path3381"
     inkscape:connector-curvature="0" />
  <path
     style="fill:#ff0000;stroke-width:0.99999994"
     d="m 8.5494281,578.46665 c 0,16.21449 13.1443929,29.35889 29.3588869,29.35889 H 662.09168 c 16.21449,0 29.35888,-13.1444 29.35888,-29.35889 0,-5.15374 -1.35639,-10.21606 -3.93325,-14.67944 L 375.42562,23.22888 C 370.18129,14.14524 360.48866,8.5494299 349.99999,8.5494299 c -10.48868,0 -20.1813,5.5958101 -25.42563,14.6794501 L 12.48268,563.78721 c -2.5768713,4.46338 -3.9332519,9.52654 -3.9332519,14.67944 z M 78.703748,550.07074 c 0,-1.47214 0.387536,-2.91912 1.124025,-4.19413 L 342.73576,90.50686 c 1.49815,-2.59532 4.26712,-4.19412 7.26423,-4.19412 2.99712,0 5.76525,1.5988 7.26422,4.19412 l 262.90801,455.36975 c 0.73648,1.27501 1.12402,2.72199 1.12402,4.19413 0,4.63283 -3.75542,8.38824 -8.38826,8.38824 H 87.092002 c -4.632833,0 -8.388254,-3.75541 -8.388254,-8.38824 z"
     id="path3383"
     inkscape:connector-curvature="0" />
  <path
     style="fill:#000000;stroke-width:0.99999994"
     d="M 94.227889,545.96133 198.82857,364.7868 605.7528,545.96133 Z"
     id="path3385"
     inkscape:connector-curvature="0" />
  <path
     style="fill:#000000;stroke-width:0.99999994"
     d="m 445.09677,441.83028 c -5.70047,13.07924 -20.92425,19.06084 -34.00348,13.36037 -13.07924,-5.70047 -19.06084,-20.92423 -13.36037,-34.00348 5.70046,-13.07923 20.92424,-19.06084 34.00348,-13.36036 13.07923,5.70047 19.06083,20.92423 13.36037,34.00347 z m -9.58557,-4.17777 c 3.39319,-7.78539 -0.16722,-16.84696 -7.95259,-20.24014 -7.78537,-3.39319 -16.84694,0.16722 -20.24013,7.95258 -3.39319,7.78538 0.16722,16.84696 7.95259,20.24015 7.78537,3.39317 16.84695,-0.16722 20.24013,-7.95259 z"
     id="path4955"
     inkscape:connector-curvature="0" />
  <path
     style="fill:#000000;stroke-width:0.99999994"
     d="m 286.09153,372.52927 c -5.70046,13.07924 -20.92423,19.06085 -34.00347,13.36037 -13.07925,-5.70046 -19.06084,-20.92423 -13.36036,-34.00348 5.70047,-13.07924 20.92424,-19.06084 34.00348,-13.36037 13.07922,5.70047 19.06083,20.92426 13.36035,34.00348 z m -9.58556,-4.17778 c 3.3932,-7.78538 -0.16721,-16.84694 -7.95258,-20.24012 -7.78537,-3.39319 -16.84695,0.1672 -20.24014,7.95258 -3.39317,7.78536 0.16721,16.84695 7.95261,20.24013 7.78535,3.39318 16.84693,-0.16721 20.24011,-7.95259 z"
     id="path4957"
     inkscape:connector-curvature="0" />
  <path
     style="fill:#000000;stroke-width:0.99999994"
     d="m 290.88433,374.61817 c 6.85399,-15.72592 -0.33805,-34.03042 -16.06398,-40.88442 -14.24793,-6.20982 -30.8929,-0.93231 -38.96017,12.35271 l -5.03787,-3.96857 c -2.94264,-2.34502 -4.29037,-6.16219 -3.47296,-9.83506 l 6.94973,-31.21971 c 0.16248,-0.73034 0.39489,-1.4437 0.69395,-2.12987 1.11173,-2.55079 3.09747,-4.62126 5.5991,-5.83873 l 60.0069,-29.20328 c 3.07397,-1.4962 6.64921,-1.57096 9.78306,-0.20512 l 74.1461,32.31593 c 2.97094,1.29486 5.27121,3.76538 6.35015,6.8213 l 19.8672,56.25746 c 0.89153,2.52459 2.62272,4.66672 4.90465,6.06738 l 53.56897,32.89093 c 5.03106,3.08899 6.96785,9.44494 4.51522,14.8147 l -9.19976,20.14113 c -2.20564,4.82838 -7.84285,7.03735 -12.74128,4.99381 3.08012,-14.44093 -4.43177,-29.05446 -17.96776,-34.954 -15.72591,-6.85401 -34.03042,0.33806 -40.88442,16.06398 z m 95.47166,-21.45976 c 3.73699,1.62874 8.08643,-0.0802 9.71518,-3.8172 0.74639,-1.71255 0.81561,-3.6448 0.19343,-5.40665 l -12.60206,-35.68569 c -0.68139,-1.92998 -2.13414,-3.49068 -4.01064,-4.30853 l -73.52593,-32.04562 c -4.16023,-1.81321 -9.02157,-0.33166 -11.46312,3.494 l -13.06697,20.47201 c -0.25985,0.40758 -0.48769,0.83463 -0.68069,1.27745 -2.03586,4.67112 0.10033,10.10792 4.77144,12.14379 z"
     id="path4959"
     inkscape:connector-curvature="0" />
</svg>
